#!OML:ASF F:\VICON\USERDATA\INSTALL\rory3\rory3.ASF
:FULLY-SPECIFIED
:DEGREES
572
root 8.54812 17.4823 6.75412 4.08587 37.3904 -2.34837
lowerback 8.74596 -2.2635 -3.14281
upperback 0.508256 -3.0465 5.52513
thorax -3.90741 -1.4047 7.96832
lowerneck 2.07066 -13.6736 -20.4519
upperneck -3.43617 -19.0147 25.8219
head 3.35539 -9.61761 10.2936
rclavicle 4.19436e-014 2.8625e-014
rhumerus -28.4399 -15.2183 -69.9777
rradius 39.1347
rwrist -16.5039
rhand -12.6958 18.0696
rfingers 7.12502
rthumb 13.3864 -11.4804
lclavicle 4.19436e-014 2.8625e-014
lhumerus -27.9502 16.6251 63.607
lradius 42.8804
lwrist 5.23806
lhand -5.59083 34.3101
lfingers 7.12502
lthumb 20.2257 63.2771
rfemur -28.9045 -0.800514 23.6634
rtibia 40.6163
rfoot -13.1788 -7.38018
rtoes 21.9893
lfemur -3.65663 -7.50802 -13.1027
ltibia 43.362
lfoot 19.5127 -23.985
ltoes 22.4153
573
root 8.57588 17.4861 6.83061 3.89927 37.1859 -2.61258
lowerback 8.7259 -2.26248 -2.97188
upperback 0.402271 -3.021 5.61146
thorax -4.01584 -1.38767 7.9638
lowerneck 2.36904 -13.5983 -20.2874
upperneck -3.37539 -18.9518 25.6461
head 3.26762 -9.60431 10.2447
rclavicle -4.47266e-014 5.00937e-014
rhumerus -28.2377 -15.3295 -70.0097
rradius 39.0727
rwrist -16.4424
rhand -12.4915 18.1587
rfingers 7.12502
rthumb 13.5833 -11.3782
lclavicle -4.47266e-014 5.00937e-014
lhumerus -27.59 16.2929 63.9507
lradius 43.5394
lwrist 4.38878
lhand -3.17779 30.4874
lfingers 7.12502
lthumb 22.5433 59.1913
rfemur -28.4386 -0.35869 23.9682
rtibia 40.3494
rfoot -13.5198 -7.70862
rtoes 23.2557
lfemur -4.53123 -7.85005 -12.7557
ltibia 44.9533
lfoot 20.2986 -23.8858
ltoes 19.8152
574
root 8.609 17.4946 6.90298 3.48113 37.0057 -2.97187
lowerback 8.91123 -2.39227 -2.63374
upperback 0.443508 -3.15233 5.74814
thorax -4.0663 -1.45633 7.94038
lowerneck 2.08006 -13.4459 -20.3816
upperneck -3.05126 -18.7477 25.6237
head 3.36809 -9.47675 10.2566
rclavicle 1.63003e-014 3.73715e-014
rhumerus -27.6558 -15.2462 -70.1935
rradius 39.0027
rwrist -16.0997
rhand -12.5035 18.0495
rfingers 7.12502
rthumb 13.5718 -11.4882
lclavicle 1.63003e-014 3.73715e-014
lhumerus -27.152 16.1122 64.5349
lradius 44.5087
lwrist 4.36595
lhand -2.73609 29.455
lfingers 7.12502
lthumb 22.9672 58.1068
rfemur -27.7284 -0.0783283 24.3538
rtibia 39.9952
rfoot -13.6137 -7.8968
rtoes 23.5794
lfemur -5.42335 -8.11174 -12.4341
ltibia 46.5716
lfoot 20.4244 -24.3923
ltoes 15.2397
575
root 8.64735 17.5115 6.9751 3.0213 36.8029 -3.29655
lowerback 9.17706 -2.53279 -2.25172
upperback 0.506495 -3.29282 5.85711
thorax -4.14252 -1.53001 7.86792
lowerneck 1.45958 -13.4178 -20.4305
upperneck -2.40148 -18.7026 25.3679
head 3.62055 -9.39681 10.1257
rclavicle 2.98177e-015 -2.78299e-014
rhumerus -26.9891 -14.9761 -70.4279
rradius 38.7333
rwrist -15.968
rhand -12.67 17.866
rfingers 7.12502
rthumb 13.4113 -11.6823
lclavicle 2.98177e-015 -2.78299e-014
lhumerus -26.8748 15.8344 65.0895
lradius 45.5813
lwrist 4.25132
lhand -2.55044 28.6171
lfingers 7.12502
lthumb 23.1454 57.2467
rfemur -26.9083 -0.0870905 24.7224
rtibia 39.5989
rfoot -13.6948 -7.7168
rtoes 23.0693
lfemur -6.37344 -8.17592 -12.2012
ltibia 48.1517
lfoot 19.7088 -25.653
ltoes 8.31238
576
root 8.67947 17.5332 7.05549 2.60819 36.4779 -3.72681
lowerback 9.33376 -2.54669 -1.94903
upperback 0.443167 -3.26759 5.98349
thorax -4.31046 -1.51424 7.8415
lowerneck 1.5368 -13.3828 -20.38
upperneck -2.12238 -18.6993 25.1727
head 3.65623 -9.3932 10.0555
rclavicle -1.15494e-013 -3.57812e-014
rhumerus -26.6646 -14.7295 -70.549
rradius 38.3234
rwrist -16.0084
rhand -12.6112 17.7047
rfingers 7.12502
rthumb 13.468 -11.8399
lclavicle -1.15494e-013 -3.57812e-014
lhumerus -26.791 15.2191 65.6327
lradius 46.6804
lwrist 3.89793
lhand -2.36307 27.505
lfingers 7.12502
lthumb 23.3251 56.1119
rfemur -26.1982 0.264528 25.1938
rtibia 39.2449
rfoot -13.4008 -7.68086
rtoes 23.6198
lfemur -7.37519 -8.00745 -11.79
ltibia 49.6742
lfoot 18.1632 -26.8328
ltoes 0.75798
577
root 8.71252 17.5349 7.13472 2.108 36.1694 -4.17156
lowerback 9.41136 -2.57837 -1.73023
upperback 0.483045 -3.27667 6.14405
thorax -4.31368 -1.52132 7.89408
lowerneck 1.67653 -13.2871 -20.3835
upperneck -2.02416 -18.6033 25.1596
head 3.63681 -9.35309 10.0777
rclavicle -3.22031e-014 6.2816e-014
rhumerus -26.2507 -14.517 -70.6932
rradius 37.896
rwrist -15.9178
rhand -12.5491 17.7559
rfingers 7.12502
rthumb 13.5278 -11.7847
lclavicle -3.22031e-014 6.2816e-014
lhumerus -26.4883 14.8384 66.254
lradius 47.6167
lwrist 3.33207
lhand -2.78006 27.1921
lfingers 7.12502
lthumb 22.925 55.8492
rfemur -25.4583 0.656562 25.6783
rtibia 38.9963
rfoot -14.4111 -7.85044
rtoes 22.5601
lfemur -8.01166 -8.04138 -11.351
ltibia 51.1271
lfoot 16.6413 -26.9637
ltoes -2.6699
578
root 8.75328 17.5235 7.20007 1.84578 35.9302 -4.23088
lowerback 9.42944 -2.62221 -1.66711
upperback 0.579754 -3.32863 6.19138
thorax -4.21523 -1.55278 7.91129
lowerneck 1.23522 -13.3263 -20.3037
upperneck -1.44389 -18.6611 24.8687
head 3.84702 -9.33866 9.91573
rclavicle -1.13307e-014 -1.43125e-014
rhumerus -25.8219 -14.5239 -70.8365
rradius 37.6295
rwrist -15.8581
rhand -12.7568 18.3274
rfingers 7.12502
rthumb 13.3276 -11.2264
lclavicle -1.13307e-014 -1.43125e-014
lhumerus -26.0097 14.4506 66.9279
lradius 48.4114
lwrist 2.76207
lhand -6.01356 33.4106
lfingers 7.12502
lthumb 19.8193 62.42
rfemur -24.845 0.582998 25.7923
rtibia 38.854
rfoot -13.8399 -7.5195
rtoes 22.9513
lfemur -8.54119 -8.37503 -11.331
ltibia 52.5319
lfoot 15.7663 -26.2376
ltoes -0.780466
579
root 8.78529 17.5172 7.27035 1.58293 35.541 -4.47895
lowerback 9.35161 -2.5662 -1.55146
upperback 0.648359 -3.24059 6.27477
thorax -4.11414 -1.5144 7.91583
lowerneck 0.951302 -13.3691 -20.1201
upperneck -0.992632 -18.7201 24.5017
head 3.9745 -9.33871 9.72742
rclavicle -1.25234e-014 5.00937e-014
rhumerus -25.3912 -14.6739 -70.9436
rradius 37.2548
rwrist -15.7581
rhand -13.0594 18.6823
rfingers 7.12502
rthumb 13.0359 -10.8903
lclavicle -1.25234e-014 5.00937e-014
lhumerus -25.577 13.761 67.6943
lradius 49.2986
lwrist 2.23073
lhand -7.35302 35.8975
lfingers 7.12502
lthumb 18.5313 65.0348
rfemur -24.3851 0.906655 26.0943
rtibia 38.7749
rfoot -14.6772 -7.5781
rtoes 21.8411
lfemur -9.2834 -8.38122 -11.0422
ltibia 53.9158
lfoot 14.2601 -26.117
ltoes -0.629497
580
root 8.81572 17.5111 7.34643 1.04628 35.0608 -5.04904
lowerback 9.32342 -2.50347 -1.24118
upperback 0.806593 -3.12003 6.44601
thorax -3.95703 -1.46466 7.89873
lowerneck 0.526931 -13.3949 -20.0247
upperneck -0.562125 -18.7432 24.3175
head 4.14394 -9.31284 9.60988
rclavicle 7.4743e-014 3.18055e-014
rhumerus -24.8325 -14.7063 -71.1078
rradius 36.8834
rwrist -15.5448
rhand -13.1092 18.2391
rfingers 7.12502
rthumb 12.988 -11.3366
lclavicle 7.4743e-014 3.18055e-014
lhumerus -25.1313 13.1956 68.4448
lradius 50.2066
lwrist 1.42858
lhand -7.51976 37.305
lfingers 7.12502
lthumb 18.3709 66.4575
rfemur -23.7766 1.35136 26.7156
rtibia 38.6946
rfoot -14.6043 -7.36554
rtoes 26.5266
lfemur -9.96134 -8.05902 -10.4216
ltibia 55.2566
lfoot 11.7354 -26.6839
ltoes -4.62409
581
root 8.86061 17.5139 7.41855 0.766251 34.6699 -5.14614
lowerback 9.36109 -2.46638 -1.11555
upperback 0.873695 -3.05708 6.47691
thorax -3.92167 -1.43692 7.8516
lowerneck -0.372224 -13.6023 -20.055
upperneck 0.539354 -19.043 24.0016
head 4.64793 -9.3769 9.37847
rclavicle -1.14898e-013 -4.6118e-014
rhumerus -24.5221 -14.7265 -71.1905
rradius 36.6672
rwrist -15.3089
rhand -12.9115 17.9699
rfingers 7.12502
rthumb 13.1785 -11.5936
lclavicle -1.14898e-013 -4.6118e-014
lhumerus -24.973 12.7032 69.0347
lradius 51.0363
lwrist 0.387839
lhand -7.35985 37.9225
lfingers 7.12502
lthumb 18.5247 67.0604
rfemur -23.1046 1.15918 26.8781
rtibia 38.5702
rfoot -15.4981 -7.16881
rtoes 20.6858
lfemur -10.6422 -7.80384 -10.3836
ltibia 56.5073
lfoot 9.42443 -26.3502
ltoes -7.73302
582
root 8.90278 17.5229 7.49123 0.858754 34.2553 -4.87881
lowerback 9.34621 -2.4119 -1.26927
upperback 0.747929 -3.00315 6.37457
thorax -4.0506 -1.40327 7.82826
lowerneck 0.290832 -13.3863 -20.0945
upperneck 0.440937 -18.8441 24.1519
head 4.48347 -9.32462 9.52085
rclavicle 2.3059e-014 5.40694e-014
rhumerus -24.453 -14.8136 -71.2769
rradius 36.379
rwrist -14.9983
rhand -12.9631 18.1574
rfingers 7.12502
rthumb 13.1287 -11.4093
lclavicle 2.3059e-014 5.40694e-014
lhumerus -25.0353 12.3263 69.4392
lradius 51.5558
lwrist -0.633724
lhand -8.25161 36.5041
lfingers 7.12502
lthumb 17.6667 65.7215
rfemur -22.6436 1.0817 26.7017
rtibia 38.4504
rfoot -14.9782 -6.7169
rtoes 21.2068
lfemur -11.516 -7.55542 -10.6792
ltibia 57.6658
lfoot 7.78527 -24.9601
ltoes -8.59023
583
root 8.93672 17.5221 7.56562 0.912594 33.7767 -4.77087
lowerback 9.2816 -2.37224 -1.39514
upperback 0.642837 -2.96596 6.31363
thorax -4.12697 -1.3798 7.83146
lowerneck 0.736384 -13.2685 -19.92
upperneck 0.372413 -18.7267 23.9966
head 4.32413 -9.29801 9.49706
rclavicle 2.46493e-014 6.2816e-014
rhumerus -24.3422 -14.8383 -71.4909
rradius 36.0979
rwrist -14.728
rhand -13.0687 18.3458
rfingers 7.12502
rthumb 13.027 -11.2274
lclavicle 2.46493e-014 6.2816e-014
lhumerus -24.9979 12.2426 69.7473
lradius 51.8387
lwrist -2.03353
lhand -9.73221 34.65
lfingers 7.12502
lthumb 16.2415 63.9897
rfemur -22.2578 1.28088 26.7077
rtibia 38.383
rfoot -15.7899 -6.7474
rtoes 19.6172
lfemur -12.3214 -7.30456 -10.6938
ltibia 58.7215
lfoot 6.25488 -23.6328
ltoes -8.10166
584
root 8.97715 17.5201 7.63559 0.915716 33.3338 -4.64731
lowerback 9.26612 -2.30744 -1.47117
upperback 0.605431 -2.88892 6.28421
thorax -4.16639 -1.33883 7.83547
lowerneck 0.577841 -13.2759 -19.8206
upperneck 0.772773 -18.7518 23.6999
head 4.42697 -9.29236 9.3631
rclavicle 1.2921e-014 -1.59028e-014
rhumerus -24.1455 -14.8584 -71.5996
rradius 35.7825
rwrist -14.634
rhand -13.0302 18.5119
rfingers 7.12502
rthumb 13.0641 -11.0589
lclavicle 1.2921e-014 -1.59028e-014
lhumerus -24.9498 11.7476 70.3221
lradius 52.4371
lwrist -3.12675
lhand -9.58889 34.1091
lfingers 7.12502
lthumb 16.3795 63.4375
rfemur -21.853 1.24038 26.6401
rtibia 38.3448
rfoot -15.5383 -6.04349
rtoes 27.4842
lfemur -12.9175 -7.22299 -10.7373
ltibia 59.6337
lfoot 5.05031 -22.4476
ltoes -5.89656
585
root 9.01471 17.5201 7.6977 0.860158 32.8646 -4.57979
lowerback 9.33473 -2.16921 -1.54253
upperback 0.62336 -2.71034 6.30479
thorax -4.20738 -1.24734 7.88224
lowerneck 0.504645 -13.2605 -19.8849
upperneck 1.01315 -18.7529 23.6525
head 4.51023 -9.28352 9.34927
rclavicle 1.94809e-014 -3.33958e-014
rhumerus -23.8903 -14.9539 -71.6144
rradius 35.5444
rwrist -14.6104
rhand -13.0552 18.3651
rfingers 7.12502
rthumb 13.04 -11.2073
lclavicle 1.94809e-014 -3.33958e-014
lhumerus -24.8388 10.8844 71.162
lradius 53.2472
lwrist -3.51325
lhand -8.11073 34.4035
lfingers 7.12502
lthumb 17.8023 63.6086
rfemur -21.4832 1.34685 26.5844
rtibia 38.3026
rfoot -15.7125 -5.46019
rtoes 30.9574
lfemur -13.5836 -7.11284 -10.7627
ltibia 60.4132
lfoot 4.41814 -21.1529
ltoes -2.31792
586
root 9.0434 17.5221 7.76769 0.684677 32.3618 -4.70799
lowerback 9.33781 -2.09481 -1.65543
upperback 0.675345 -2.62082 6.39364
thorax -4.1582 -1.20246 8.03239
lowerneck 0.619888 -13.1047 -19.8564
upperneck 1.09027 -18.5584 23.5712
head 4.45695 -9.19503 9.35824
rclavicle -4.29375e-014 7.15625e-014
rhumerus -23.58 -14.8671 -71.7838
rradius 35.3771
rwrist -14.5323
rhand -12.9673 17.8894
rfingers 7.12502
rthumb 13.1248 -11.6776
lclavicle -4.29375e-014 7.15625e-014
lhumerus -24.8763 10.3729 71.795
lradius 54.0022
lwrist -3.90823
lhand -7.26904 33.8147
lfingers 7.12502
lthumb 18.612 62.9444
rfemur -21.0331 1.82386 26.7831
rtibia 38.2128
rfoot -15.976 -5.26608
rtoes 32.6833
lfemur -14.3246 -6.81173 -10.5181
ltibia 61.0412
lfoot 3.11759 -20.2674
ltoes -1.40255
